<?xml version="1.0" encoding="UTF-8"?>
<svg version="1.1" xmlns="http://www.w3.org/2000/svg" width="391" height="390">
<path d="M0 0 C0.68613876 -0.00287018 1.37227753 -0.00574036 2.07920837 -0.00869751 C3.51871575 -0.01072468 4.95825154 -0.0052898 6.39770508 0.00732422 C8.58803352 0.02342419 10.77652424 0.00741884 12.96679688 -0.01171875 C14.37370194 -0.00973656 15.78060588 -0.00589338 17.1875 0 C19.08447632 0.00507568 19.08447632 0.00507568 21.01977539 0.01025391 C24.94371214 0.44451711 27.25978212 1.18303247 30.52734375 3.3984375 C33.61097409 7.90487637 33.88486135 11.60530449 33.8203125 16.984375 C33.81606766 17.68615875 33.81182281 18.3879425 33.80744934 19.11099243 C33.79077974 21.3322131 33.75315247 23.55249538 33.71484375 25.7734375 C33.69978163 27.28774723 33.68609591 28.80207131 33.67382812 30.31640625 C33.64091558 34.01071682 33.58921634 37.70448543 33.52734375 41.3984375 C34.50082764 41.38272705 35.47431152 41.3670166 36.47729492 41.35083008 C40.10204742 41.29637511 43.72676401 41.26203124 47.35180664 41.23364258 C48.91827482 41.21859128 50.48470111 41.19814543 52.05102539 41.17211914 C54.30755981 41.13557317 56.56353528 41.11867489 58.8203125 41.10546875 C59.51634079 41.08998489 60.21236908 41.07450104 60.92948914 41.05854797 C65.31083668 41.05704446 68.09610304 41.62616385 71.52734375 44.3984375 C74.26033232 47.95147737 73.8333348 52.19468446 73.828125 56.48828125 C73.83241013 57.26982071 73.83669525 58.05136017 73.84111023 58.85658264 C73.8468429 60.50651075 73.84736162 62.15646413 73.84301758 63.80639648 C73.83985892 66.32384581 73.86332411 68.84011784 73.88867188 71.35742188 C73.8909452 72.96354019 73.89164821 74.56966165 73.890625 76.17578125 C73.89983475 76.92488266 73.90904449 77.67398407 73.91853333 78.44578552 C73.87893318 82.9435236 73.47820487 85.93573596 70.52734375 89.3984375 C64.24314605 93.53157338 57.49013287 92.88538655 50.26245117 92.84448242 C47.99498285 92.83604959 45.73010565 92.86463523 43.46289062 92.89648438 C28.513831 92.97722032 16.60223353 88.33090005 3.35693359 81.79785156 C1.24361537 80.75682277 -0.87749366 79.73308292 -3 78.7109375 C-4.35074017 78.05306746 -5.70101935 77.39424985 -7.05078125 76.734375 C-7.68292542 76.4291391 -8.31506958 76.1239032 -8.96636963 75.80941772 C-13.35703844 73.62967312 -13.35703844 73.62967312 -14.47265625 71.3984375 C-13.5368663 69.03861937 -12.53917817 66.70212486 -11.47265625 64.3984375 C-6.26395504 64.91806745 -2.36111069 66.14646031 2.30859375 68.48828125 C3.23436218 68.94516075 3.23436218 68.94516075 4.17883301 69.41127014 C6.13307948 70.37694778 8.08056779 71.35529806 10.02734375 72.3359375 C11.97475493 73.31157744 13.92351939 74.28414159 15.87585449 75.24989319 C17.64784312 76.12714091 19.41489799 77.01433403 21.18164062 77.90209961 C27.23891592 80.6111656 32.59212256 81.65301048 39.2109375 81.8125 C39.9113063 81.83186615 40.61167511 81.8512323 41.33326721 81.8711853 C43.54367356 81.93038641 45.7541337 81.97712475 47.96484375 82.0234375 C49.47463056 82.06167226 50.98439685 82.10072708 52.49414062 82.140625 C56.17176075 82.23756392 59.84919448 82.31759905 63.52734375 82.3984375 C63.52734375 72.1684375 63.52734375 61.9384375 63.52734375 51.3984375 C59.68142578 51.41583984 59.68142578 51.41583984 55.7578125 51.43359375 C53.27563602 51.44139165 50.79346091 51.44746425 48.3112793 51.45336914 C46.58568715 51.45839908 44.86009927 51.46522376 43.13452148 51.47387695 C40.65477445 51.48600111 38.17508375 51.49167919 35.6953125 51.49609375 C34.5373542 51.50383568 34.5373542 51.50383568 33.35600281 51.51173401 C30.14432095 51.51207068 27.59714109 51.42170328 24.52734375 50.3984375 C22.91782832 47.17940665 23.28499627 43.65004918 23.2109375 40.109375 C23.1901564 39.29095123 23.16937531 38.47252747 23.14796448 37.62930298 C23.08249563 35.01076784 23.02359649 32.39213111 22.96484375 29.7734375 C22.92165599 27.99998943 22.87804161 26.22655169 22.83398438 24.453125 C22.72601276 20.10166518 22.62691997 15.75013003 22.52734375 11.3984375 C7.67734375 10.9034375 7.67734375 10.9034375 -7.47265625 10.3984375 C-7.3540936 18.49114795 -7.3540936 18.49114795 -7.20239258 26.58325195 C-7.1948999 27.590896 -7.18740723 28.59854004 -7.1796875 29.63671875 C-7.15612183 31.184198 -7.15612183 31.184198 -7.13208008 32.76293945 C-7.47265625 35.3984375 -7.47265625 35.3984375 -8.76049805 37.27807617 C-11.62161105 39.15026319 -14.2796431 38.06113834 -17.47265625 37.3984375 C-17.7574813 32.8582545 -17.99436975 28.31678653 -18.22265625 23.7734375 C-18.30386719 22.48824219 -18.38507813 21.20304687 -18.46875 19.87890625 C-18.96647749 9.20541666 -18.96647749 9.20541666 -16.92578125 5.6875 C-11.8567868 0.95751473 -6.76827975 0.01809355 0 0 Z " fill="#D4D4D4" transform="translate(185.47265625,83.6015625)"/>
<path d="M0 0 C0.81028656 -0.00524185 1.62057312 -0.0104837 2.45541382 -0.0158844 C4.1683437 -0.02229351 5.88131765 -0.02098197 7.59423828 -0.01245117 C10.1821402 -0.00400029 12.76778797 -0.03261917 15.35546875 -0.06445312 C24.57088214 -0.10781545 32.15128865 0.39302098 40.5859375 4.43359375 C41.78331543 4.95912842 42.98069336 5.48466309 44.21435547 6.02612305 C47.5557019 7.49301955 50.87062667 9.0106799 54.17822266 10.55200195 C56.23765569 11.50850298 58.30410776 12.44862397 60.37109375 13.38867188 C61.6853508 13.9977171 62.99917037 14.60770748 64.3125 15.21875 C65.49408691 15.764104 66.67567383 16.30945801 67.89306641 16.87133789 C70.5859375 18.43359375 70.5859375 18.43359375 71.5859375 21.43359375 C70.66390041 23.79881933 69.66894785 26.13761182 68.5859375 28.43359375 C64.46706051 27.80591013 61.20054342 26.43780724 57.47265625 24.59765625 C56.30669922 24.02789062 55.14074219 23.458125 53.93945312 22.87109375 C52.71721181 22.26740487 51.49520808 21.66323476 50.2734375 21.05859375 C47.88368373 19.87955895 45.49132398 18.70627302 43.09765625 17.53515625 C42.04022217 17.01260254 40.98278809 16.49004883 39.89331055 15.95166016 C33.13355342 12.84896806 27.62804606 10.98786237 20.1484375 10.921875 C19.38289551 10.9039238 18.61735352 10.8859726 17.82861328 10.86747742 C15.41444194 10.8138542 13.00046265 10.77963552 10.5859375 10.74609375 C8.93617145 10.71287807 7.2864306 10.67838456 5.63671875 10.64257812 C1.61977143 10.55577977 -2.39634063 10.49530664 -6.4140625 10.43359375 C-6.0840625 20.33359375 -5.7540625 30.23359375 -5.4140625 40.43359375 C-2.76632813 40.49417969 -0.11859375 40.55476563 2.609375 40.6171875 C5.16767285 40.67895797 7.72592561 40.7423535 10.28417969 40.8059082 C12.06506353 40.84927705 13.84598948 40.89095069 15.62695312 40.9309082 C18.18372298 40.98856365 20.74028048 41.05227145 23.296875 41.1171875 C24.09588226 41.13389999 24.89488953 41.15061249 25.71810913 41.16783142 C31.35819409 41.31972204 31.35819409 41.31972204 33.5859375 42.43359375 C34.83876475 46.19207549 34.70975585 49.68850294 34.68359375 53.6015625 C34.6821788 54.39637527 34.68076385 55.19118805 34.67930603 56.01008606 C34.67371128 58.547127 34.66115978 61.0840795 34.6484375 63.62109375 C34.64342182 65.3417956 34.63885903 67.06249883 34.63476562 68.78320312 C34.62459472 73.00006144 34.60501834 77.21672866 34.5859375 81.43359375 C44.8159375 81.43359375 55.0459375 81.43359375 65.5859375 81.43359375 C65.5859375 72.85359375 65.5859375 64.27359375 65.5859375 55.43359375 C68.80045019 53.8263374 72.02206286 54.3761119 75.5859375 54.43359375 C75.7029025 58.76669703 75.7734464 63.09938955 75.8359375 67.43359375 C75.86945313 68.65433594 75.90296875 69.87507813 75.9375 71.1328125 C76.01570307 78.36659614 75.73800687 83.39422012 71.5859375 89.43359375 C67.9477222 92.05721275 63.84375876 91.77376898 59.53125 91.8046875 C58.75208221 91.81371597 57.97291443 91.82274445 57.1701355 91.83204651 C55.52443268 91.84652873 53.87867254 91.85543071 52.23291016 91.85913086 C49.72589259 91.87102281 47.22134184 91.92021854 44.71484375 91.97070312 C43.11199112 91.98016891 41.50912344 91.9874032 39.90625 91.9921875 C39.16230988 92.01171982 38.41836975 92.03125214 37.65188599 92.05137634 C33.6951439 92.01738062 31.16535137 91.48163296 28.12841797 89.02368164 C24.23246144 85.05477413 24.44976796 82.32880439 24.48828125 77.01953125 C24.4896962 76.28989166 24.49111115 75.56025208 24.49256897 74.8085022 C24.49817219 72.4751579 24.51072515 70.14190911 24.5234375 67.80859375 C24.52845209 66.22786597 24.53301507 64.64713668 24.53710938 63.06640625 C24.54814266 59.18876521 24.56540939 55.31119568 24.5859375 51.43359375 C23.6479834 51.4493042 22.7100293 51.46501465 21.74365234 51.48120117 C18.24359545 51.5325134 14.7439418 51.57003247 11.24365234 51.59838867 C9.73252023 51.61341918 8.22143132 51.63384939 6.71044922 51.65991211 C4.53081563 51.69655064 2.35176175 51.71337713 0.171875 51.7265625 C-1.1373291 51.74227295 -2.4465332 51.7579834 -3.79541016 51.77416992 C-7.80672038 51.39663803 -10.09138061 50.70721223 -13.4140625 48.43359375 C-16.47465219 43.94569817 -16.7986981 40.19497952 -16.8125 34.83984375 C-16.81537018 34.13009399 -16.81824036 33.42034424 -16.82119751 32.68908691 C-16.82322846 31.19652503 -16.81776672 29.70393594 -16.80517578 28.21142578 C-16.78910653 25.93981853 -16.80505575 23.66999008 -16.82421875 21.3984375 C-16.82223614 19.94140236 -16.81839211 18.48436832 -16.8125 17.02734375 C-16.80911621 15.71443359 -16.80573242 14.40152344 -16.80224609 13.04882812 C-16.27054404 8.09697655 -15.07936495 4.85720728 -11.25244141 1.58569336 C-7.4931752 0.05980507 -3.99474506 -0.01521246 0 0 Z " fill="#BD1010" transform="translate(143.4140625,124.56640625)"/>
<path d="M0 0 C0.78694966 0.00291284 1.57389933 0.00582568 2.38469595 0.00882679 C3.2145115 0.00797237 4.04432706 0.00711794 4.89928854 0.00623763 C7.70156959 0.00458028 10.5037918 0.01010834 13.30606741 0.01555592 C15.30618946 0.01583776 17.30631162 0.01568011 19.30643362 0.01511341 C24.75455674 0.01482532 30.20265805 0.02072386 35.65077609 0.02768737 C41.33762481 0.03391905 47.02447398 0.03452456 52.71132559 0.03571278 C63.48837598 0.03882665 74.26541629 0.04704078 85.04246223 0.05706227 C97.30827247 0.06822169 109.57408317 0.07373342 121.83989722 0.0787577 C147.07919588 0.08922335 172.31848557 0.10682386 197.55777639 0.12908131 C197.55777639 3.42908131 197.55777639 6.72908131 197.55777639 10.12908131 C148.14705379 10.83524477 98.7407201 11.2386862 49.32466406 11.25246388 C45.48359324 11.25408624 41.64252827 11.2576495 37.80145925 11.26164967 C31.73648053 11.26746649 25.67152706 11.267755 19.6065473 11.26340061 C17.35442901 11.26240147 15.10230941 11.26299686 12.85019201 11.2652393 C9.77214369 11.26776491 6.69416882 11.2640248 3.616126 11.25847584 C2.70429084 11.26050259 1.79245567 11.26252934 0.85298914 11.2646175 C-5.32791168 11.24339324 -5.32791168 11.24339324 -6.44222361 10.12908131 C-6.54012931 8.63170007 -6.57197225 7.12965239 -6.56722361 5.62908131 C-6.56980173 4.81439381 -6.57237986 3.99970631 -6.57503611 3.16033131 C-6.30153843 -1.02257437 -3.54855094 0.00996352 0 0 Z " fill="#C81111" transform="translate(97.4422236084938,274.8709186911583)"/>
<path d="M0 0 C0.89460937 -0.02900391 1.78921875 -0.05800781 2.7109375 -0.08789062 C8.55241579 -0.143893 11.79665423 0.44096231 16.25 4.3125 C17.49380707 6.80011414 17.17578712 8.01861902 16.8125 10.75 C15.96396934 16.29456973 15.96396934 16.29456973 18.25 21.3125 C19.01142663 27.9477892 19.01142663 27.9477892 17.234375 31.1328125 C15.08312465 33.81539576 13.53464992 35.21761669 10.25 36.3125 C8.63486949 36.40528335 7.01622945 36.44318503 5.3984375 36.4453125 C4.46515625 36.44660156 3.531875 36.44789063 2.5703125 36.44921875 C1.59835938 36.44535156 0.62640625 36.44148438 -0.375 36.4375 C-1.3546875 36.44136719 -2.334375 36.44523437 -3.34375 36.44921875 C-4.27445313 36.44792969 -5.20515625 36.44664062 -6.1640625 36.4453125 C-7.44724365 36.44362061 -7.44724365 36.44362061 -8.75634766 36.44189453 C-10.75 36.3125 -10.75 36.3125 -11.75 35.3125 C-11.83847743 32.79155924 -11.86527301 30.29819107 -11.84765625 27.77734375 C-11.8462413 27.02409317 -11.84482635 26.27084259 -11.84336853 25.49476624 C-11.83775376 23.0798044 -11.82519883 20.66493399 -11.8125 18.25 C-11.8074869 16.61653779 -11.80292366 14.98307414 -11.79882812 13.34960938 C-11.78777954 9.33720415 -11.77050506 5.32486759 -11.75 1.3125 C-8.1450387 -0.48998065 -3.97001652 0.0421744 0 0 Z M-2.75 8.3125 C-2.75 10.2925 -2.75 12.2725 -2.75 14.3125 C-1.29176788 14.3395043 0.16660675 14.35889787 1.625 14.375 C2.84316406 14.39240234 2.84316406 14.39240234 4.0859375 14.41015625 C6.29937142 14.45716334 6.29937142 14.45716334 8.25 13.3125 C8.25 11.9925 8.25 10.6725 8.25 9.3125 C5.84454362 8.10977181 4.30003047 8.21178528 1.625 8.25 C0.80773437 8.25902344 -0.00953125 8.26804688 -0.8515625 8.27734375 C-1.47804687 8.28894531 -2.10453125 8.30054688 -2.75 8.3125 Z M-2.75 22.3125 C-2.75 24.2925 -2.75 26.2725 -2.75 28.3125 C0.88 28.3125 4.51 28.3125 8.25 28.3125 C8.58 26.6625 8.91 25.0125 9.25 23.3125 C8.19021067 22.02637324 8.19021067 22.02637324 5.74609375 22.21484375 C4.73675781 22.22644531 3.72742188 22.23804688 2.6875 22.25 C1.67558594 22.25902344 0.66367188 22.26804688 -0.37890625 22.27734375 C-1.16136719 22.28894531 -1.94382813 22.30054688 -2.75 22.3125 Z " fill="#F2F2F2" transform="translate(136.75,232.6875)"/>
<path d="M0 0 C4.65674234 2.68658212 7.63369579 6.2302698 9.31640625 11.3515625 C10.33362859 16.7267795 9.35832233 21.68275578 6.6875 26.4375 C3.10906899 30.34456243 -0.68194054 34.24856479 -6.140625 34.640625 C-17.82819507 34.8007287 -17.82819507 34.8007287 -22.3125 31.4375 C-26.72559714 26.9241052 -29.1121082 23.21631683 -29.44921875 16.859375 C-29.31611783 11.73148701 -28.77989807 8.23979099 -25.1875 4.4375 C-17.86541248 -1.75582758 -8.9785338 -3.93022612 0 0 Z M-19.6875 11.125 C-20.66168649 14.72949001 -20.48372047 17.93769918 -19.3125 21.4375 C-16.85989878 24.30883801 -15.04670049 26.02427254 -11.3125 26.9140625 C-7.46652613 27.19085607 -5.48058261 26.55909167 -2.375 24.3125 C-0.05991662 21.08541407 0.6875 19.39989846 0.6875 15.4375 C-0.56884946 11.87784319 -1.68947298 9.94265704 -4.625 7.5625 C-10.53203051 5.08978955 -15.581591 6.08592986 -19.6875 11.125 Z " fill="#F0F0F0" transform="translate(191.3125,234.5625)"/>
<path d="M0 0 C2.05078125 0.03255208 4.1015625 0.06510417 6.15234375 0.09765625 C6.15234375 4.71765625 6.15234375 9.33765625 6.15234375 14.09765625 C10.77234375 14.09765625 15.39234375 14.09765625 20.15234375 14.09765625 C20.13171875 11.97328125 20.11109375 9.84890625 20.08984375 7.66015625 C20.06860592 5.47266014 20.07975429 3.28405078 20.15234375 1.09765625 C21.15234375 0.09765625 21.15234375 0.09765625 23 0 C25.05078125 0.03255208 27.1015625 0.06510417 29.15234375 0.09765625 C29.17699473 5.06387974 29.19518024 10.03006791 29.20727539 14.99633789 C29.21231565 16.68709941 29.2191478 18.37785654 29.2277832 20.06860352 C29.23986232 22.49366332 29.24557498 24.91866569 29.25 27.34375 C29.25516129 28.10417099 29.26032257 28.86459198 29.26564026 29.64805603 C29.26583613 31.46498195 29.21431652 33.28178752 29.15234375 35.09765625 C28.15234375 36.09765625 28.15234375 36.09765625 26.3046875 36.1953125 C24.25390625 36.16276042 22.203125 36.13020833 20.15234375 36.09765625 C20.15234375 31.80765625 20.15234375 27.51765625 20.15234375 23.09765625 C15.86234375 23.09765625 11.57234375 23.09765625 7.15234375 23.09765625 C7.00796875 25.05703125 6.86359375 27.01640625 6.71484375 29.03515625 C6.27734375 34.97265625 6.27734375 34.97265625 5.15234375 36.09765625 C2.48175524 36.23880786 -0.17197863 36.14012732 -2.84765625 36.09765625 C-2.87230723 31.13143276 -2.89049274 26.16524459 -2.90258789 21.19897461 C-2.90762815 19.50821309 -2.9144603 17.81745596 -2.9230957 16.12670898 C-2.93517482 13.70164918 -2.94088748 11.27664681 -2.9453125 8.8515625 C-2.95047379 8.09114151 -2.95563507 7.33072052 -2.96095276 6.54725647 C-2.96114863 4.73033055 -2.90962902 2.91352498 -2.84765625 1.09765625 C-1.84765625 0.09765625 -1.84765625 0.09765625 0 0 Z " fill="#E8E8E8" transform="translate(269.84765625,232.90234375)"/>
<path d="M0 0 C3.15994505 -0.56879011 5.86585831 -0.7797133 9 0 C11.59844343 2.69293228 13.3166991 5.67300529 15 9 C15.40089844 8.3503125 15.80179688 7.700625 16.21484375 7.03125 C20.80274686 0.28984135 20.80274686 0.28984135 24.46875 -0.59765625 C26.70745987 -0.56577589 28.79941557 -0.40418898 31 0 C29.27826451 4.89427346 26.52757464 8.44158764 23.36328125 12.5 C21.80784907 14.87636015 21.80784907 14.87636015 22.00390625 17.3984375 C23.58985475 21.54056182 26.28524024 24.85460318 28.9375 28.359375 C30.03048621 29.85613955 31.02333395 31.42486624 32 33 C31.67 33.99 31.34 34.98 31 36 C27.80656435 36.65172156 25.16729168 36.85196137 22 36 C19.08711192 32.99212644 17.02701356 29.64992796 15 26 C14.13375 27.0828125 14.13375 27.0828125 13.25 28.1875 C12.5075 29.115625 11.765 30.04375 11 31 C10.443125 31.928125 9.88625 32.85625 9.3125 33.8125 C6.59730246 36.38093011 5.85447983 36.3125 2.25 36.3125 C0.83176684 36.23243845 -0.58603027 36.13595863 -2 36 C-1.35688865 31.14093649 2.05832476 27.55626126 4.9375 23.77734375 C7.28126246 20.67702331 7.28126246 20.67702331 8.03125 16.97265625 C5.94736814 12.98644285 3.22666037 9.42970284 0.6171875 5.77734375 C0.08351562 4.86082031 -0.45015625 3.94429687 -1 3 C-0.67 2.01 -0.34 1.02 0 0 Z " fill="#E2E2E2" transform="translate(208,233)"/>
<path d="M0 0 C1.26457031 -0.04350586 1.26457031 -0.04350586 2.5546875 -0.08789062 C8.53977365 -0.1482991 11.96304829 0.85928822 16.875 4.3125 C19.30427324 7.26987612 19.23999293 10.52625326 19.12109375 14.2890625 C18.56727248 18.84270406 16.66035615 21.54728119 13.4375 24.6875 C8.27620626 27.04177434 3.45982171 26.63782942 -2.125 26.3125 C-2.125 29.6125 -2.125 32.9125 -2.125 36.3125 C-4.765 36.3125 -7.405 36.3125 -10.125 36.3125 C-10.14965098 31.34627651 -10.16783649 26.38008834 -10.17993164 21.41381836 C-10.1849719 19.72305684 -10.19180405 18.03229971 -10.20043945 16.34155273 C-10.21251857 13.91649293 -10.21823123 11.49149056 -10.22265625 9.06640625 C-10.22781754 8.30598526 -10.23297882 7.54556427 -10.23829651 6.76210022 C-10.23849238 4.9451743 -10.18697277 3.12836873 -10.125 1.3125 C-7.90475266 -0.90774734 -2.97817728 0.03323859 0 0 Z M-2.125 8.3125 C-2.125 11.6125 -2.125 14.9125 -2.125 18.3125 C0.288125 18.374375 0.288125 18.374375 2.75 18.4375 C3.65492187 18.46070313 4.55984375 18.48390625 5.4921875 18.5078125 C8.06306994 18.55574836 8.06306994 18.55574836 9.875 16.3125 C10.29166667 13.3125 10.29166667 13.3125 9.875 10.3125 C5.6725546 7.51086974 2.87395065 8.16760288 -2.125 8.3125 Z " fill="#E8E8E8" transform="translate(14.125,232.6875)"/>
<path d="M0 0 C0.33 0 0.66 0 1 0 C1 2.64 1 5.28 1 8 C67.66 8 134.32 8 203 8 C203 8.66 203 9.32 203 10 C153.58927739 10.70616346 104.1829437 11.10960489 54.76688766 11.12338257 C50.92581684 11.12500493 47.08475188 11.12856819 43.24368286 11.13256836 C37.17870414 11.13838519 31.11375066 11.13867369 25.0487709 11.13431931 C22.79665261 11.13332017 20.54453301 11.13391555 18.29241562 11.13615799 C15.2143673 11.1386836 12.13639243 11.1349435 9.05834961 11.12939453 C8.14651444 11.13142128 7.23467928 11.13344803 6.29521275 11.13553619 C0.11431193 11.11431193 0.11431193 11.11431193 -1 10 C-1.0979057 8.50261876 -1.12974864 7.00057108 -1.125 5.5 C-1.12757812 4.6853125 -1.13015625 3.870625 -1.1328125 3.03125 C-1 1 -1 1 0 0 Z " fill="#2A0505" transform="translate(92,275)"/>
<path d="M0 0 C0 9.24 0 18.48 0 28 C4.62 28 9.24 28 14 28 C15 33 15 33 14 36 C10.35418313 36.02887512 6.70839537 36.04675585 3.0625 36.0625 C1.50112305 36.07506836 1.50112305 36.07506836 -0.09179688 36.08789062 C-1.08115234 36.09111328 -2.07050781 36.09433594 -3.08984375 36.09765625 C-4.46450806 36.10551147 -4.46450806 36.10551147 -5.86694336 36.11352539 C-8 36 -8 36 -9 35 C-9.08847743 32.47905924 -9.11527301 29.98569107 -9.09765625 27.46484375 C-9.0962413 26.71159317 -9.09482635 25.95834259 -9.09336853 25.18226624 C-9.08775376 22.7673044 -9.07519883 20.35243399 -9.0625 17.9375 C-9.0574869 16.30403779 -9.05292366 14.67057414 -9.04882812 13.03710938 C-9.03777954 9.02470415 -9.02050506 5.01236759 -9 1 C-7 0 -7 0 0 0 Z " fill="#FAFAFA" transform="translate(340,233)"/>
<path d="M0 0 C2.64 0 5.28 0 8 0 C8 9.24 8 18.48 8 28 C12.62 28 17.24 28 22 28 C22 30.31 22 32.62 22 35 C21 36 21 36 18.86694336 36.11352539 C17.49227905 36.10567017 17.49227905 36.10567017 16.08984375 36.09765625 C15.10048828 36.09443359 14.11113281 36.09121094 13.09179688 36.08789062 C12.05087891 36.07951172 11.00996094 36.07113281 9.9375 36.0625 C8.89271484 36.05798828 7.84792969 36.05347656 6.77148438 36.04882812 C4.1809334 36.03699913 1.59049441 36.02051689 -1 36 C-1.02465098 31.03377651 -1.04283649 26.06758834 -1.05493164 21.10131836 C-1.0599719 19.41055684 -1.06680405 17.71979971 -1.07543945 16.02905273 C-1.08751857 13.60399293 -1.09323123 11.17899056 -1.09765625 8.75390625 C-1.10281754 7.99348526 -1.10797882 7.23306427 -1.11329651 6.44960022 C-1.11349238 4.6326743 -1.06197277 2.81586873 -1 1 C-0.67 0.67 -0.34 0.34 0 0 Z " fill="#F4F4F4" transform="translate(364,233)"/>
<path d="M0 0 C2.64 0 5.28 0 8 0 C8 9.24 8 18.48 8 28 C12.62 28 17.24 28 22 28 C22 30.31 22 32.62 22 35 C21 36 21 36 18.86694336 36.11352539 C17.49227905 36.10567017 17.49227905 36.10567017 16.08984375 36.09765625 C15.10048828 36.09443359 14.11113281 36.09121094 13.09179688 36.08789062 C12.05087891 36.07951172 11.00996094 36.07113281 9.9375 36.0625 C8.89271484 36.05798828 7.84792969 36.05347656 6.77148438 36.04882812 C4.1809334 36.03699913 1.59049441 36.02051689 -1 36 C-1.02465098 31.03377651 -1.04283649 26.06758834 -1.05493164 21.10131836 C-1.0599719 19.41055684 -1.06680405 17.71979971 -1.07543945 16.02905273 C-1.08751857 13.60399293 -1.09323123 11.17899056 -1.09765625 8.75390625 C-1.10281754 7.99348526 -1.10797882 7.23306427 -1.11329651 6.44960022 C-1.11349238 4.6326743 -1.06197277 2.81586873 -1 1 C-0.67 0.67 -0.34 0.34 0 0 Z " fill="#F6F6F6" transform="translate(95,233)"/>
<path d="M0 0 C0 9.24 0 18.48 0 28 C4.62 28 9.24 28 14 28 C14 30.64 14 33.28 14 36 C6.41 36 -1.18 36 -9 36 C-9 24.45 -9 12.9 -9 1 C-7 0 -7 0 0 0 Z " fill="#FBFBFB" transform="translate(71,233)"/>
<path d="M0 0 C0.33 0 0.66 0 1 0 C1.0093457 1.09465576 1.01869141 2.18931152 1.02832031 3.31713867 C1.06827937 7.38965111 1.13405402 11.4614128 1.20751953 15.53344727 C1.23569499 17.29376561 1.25692659 19.05420967 1.27099609 20.81469727 C1.29247373 23.34977411 1.33914592 25.8833451 1.390625 28.41796875 C1.39246796 29.59325386 1.39246796 29.59325386 1.39434814 30.7922821 C1.49181849 34.45207454 1.83910437 36.68639682 3.53515625 39.9921875 C6.90631959 42.73826984 9.87601665 42.72904991 14.046875 42.70703125 C14.81807678 42.72215256 15.58927856 42.73727386 16.3838501 42.75285339 C18.83953069 42.79573495 21.2939823 42.80456806 23.75 42.8125 C25.41800143 42.83564421 27.08597363 42.8610094 28.75390625 42.88867188 C32.83604614 42.95152782 36.9174189 42.98385956 41 43 C41.01458252 43.97348389 41.02916504 44.94696777 41.04418945 45.94995117 C41.10233296 49.57515476 41.17956377 53.1997476 41.26245117 56.82446289 C41.29562532 58.39076801 41.32368058 59.95719051 41.34643555 61.52368164 C41.38012116 63.78061763 41.43244049 66.03648526 41.48828125 68.29296875 C41.49467117 68.98899704 41.5010611 69.68502533 41.50764465 70.40214539 C41.63797564 74.74981593 42.330837 77.54437664 45 81 C48.6548079 83.4365386 51.36779603 83.27285885 55.58984375 83.23046875 C56.33077774 83.23001053 57.07171173 83.22955231 57.83509827 83.2290802 C59.40106814 83.22606141 60.9670351 83.21818622 62.53295898 83.20581055 C64.92507622 83.18759461 67.31680512 83.18530069 69.70898438 83.18554688 C71.23177417 83.18062971 72.75456134 83.17480052 74.27734375 83.16796875 C74.99099594 83.16685593 75.70464813 83.1657431 76.43992615 83.16459656 C79.76545463 83.13296433 82.81947383 83.02605872 86 82 C86 82.66 86 83.32 86 84 C82.20797475 86.47502333 78.31977581 86.33973105 73.9453125 86.37109375 C73.16614471 86.38012222 72.38697693 86.3891507 71.584198 86.39845276 C69.93849518 86.41293498 68.29273504 86.42183696 66.64697266 86.42553711 C64.13995509 86.43742906 61.63540434 86.48662479 59.12890625 86.53710938 C57.52605362 86.54657516 55.92318594 86.55380945 54.3203125 86.55859375 C53.57637238 86.57812607 52.83243225 86.59765839 52.06594849 86.61778259 C48.1092064 86.58378687 45.57941387 86.04803921 42.54248047 83.59008789 C38.64652394 79.62118038 38.86383046 76.89521064 38.90234375 71.5859375 C38.9037587 70.85629791 38.90517365 70.12665833 38.90663147 69.37490845 C38.91223469 67.04156415 38.92478765 64.70831536 38.9375 62.375 C38.94251459 60.79427222 38.94707757 59.21354293 38.95117188 57.6328125 C38.96220516 53.75517146 38.97947189 49.87760193 39 46 C38.0620459 46.01571045 37.1240918 46.0314209 36.15771484 46.04760742 C32.65765795 46.09891965 29.1580043 46.13643872 25.65771484 46.16479492 C24.14658273 46.17982543 22.63549382 46.20025564 21.12451172 46.22631836 C18.94487813 46.26295689 16.76582425 46.27978338 14.5859375 46.29296875 C13.2767334 46.3086792 11.9675293 46.32438965 10.61865234 46.34057617 C6.60734212 45.96304428 4.32268189 45.27361848 1 43 C-2.0231701 38.57940569 -2.4341403 34.55486701 -2.36328125 29.3359375 C-2.36377975 28.6214444 -2.36427826 27.90695129 -2.36479187 27.17080688 C-2.36246394 25.66983235 -2.35281149 24.16885297 -2.33618164 22.66796875 C-2.31249633 20.37464475 -2.31564151 18.08247859 -2.32226562 15.7890625 C-2.31669087 14.32551393 -2.30958226 12.86197023 -2.30078125 11.3984375 C-2.30169266 10.71607025 -2.30260406 10.033703 -2.30354309 9.33065796 C-2.24991581 5.72428721 -1.96004359 3.07149901 0 0 Z " fill="#070101" transform="translate(129,130)"/>
<path d="M0 0 C4.53897705 -0.02465392 9.07791543 -0.04283789 13.61694336 -0.05493164 C15.16219766 -0.0599714 16.70744716 -0.0668032 18.25268555 -0.07543945 C20.46925029 -0.08752076 22.68575218 -0.09323173 24.90234375 -0.09765625 C25.5971434 -0.10281754 26.29194305 -0.10797882 27.00779724 -0.11329651 C28.6722933 -0.11349277 30.33665499 -0.06189129 32 0 C34.08204358 2.08204358 33.25821292 6.5338556 33.31640625 9.41015625 C33.33718735 10.25219101 33.35796844 11.09422577 33.37937927 11.96177673 C33.44496812 14.66193179 33.50380276 17.36218717 33.5625 20.0625 C33.60567637 21.88868241 33.64929036 23.71485454 33.69335938 25.54101562 C33.80065894 30.02723992 33.90189966 34.5135655 34 39 C35.71098877 39.029729 35.71098877 39.029729 37.45654297 39.06005859 C41.67975323 39.13600567 45.90261399 39.22473928 50.12548828 39.31738281 C51.95484529 39.35571777 53.78427885 39.39056263 55.61376953 39.421875 C58.24018759 39.46742805 60.86607659 39.52543731 63.4921875 39.5859375 C64.31306854 39.59748871 65.13394958 39.60903992 65.97970581 39.62094116 C71.77225659 39.77225659 71.77225659 39.77225659 74 42 C74.22705078 45.07275391 74.22705078 45.07275391 74.1953125 48.9765625 C74.1924826 49.66181 74.18965271 50.3470575 74.18673706 51.05307007 C74.17553281 53.24389027 74.15042859 55.43430316 74.125 57.625 C74.11497048 59.1093691 74.10584458 60.5937446 74.09765625 62.078125 C74.07559294 65.71888261 74.04106176 69.35940156 74 73 C72.515 73.495 72.515 73.495 71 74 C71 63.77 71 53.54 71 43 C67.15408203 43.01740234 67.15408203 43.01740234 63.23046875 43.03515625 C60.74829227 43.04295415 58.26611716 43.04902675 55.78393555 43.05493164 C54.0583434 43.05996158 52.33275552 43.06678626 50.60717773 43.07543945 C48.1274307 43.08756361 45.64774 43.09324169 43.16796875 43.09765625 C42.01001045 43.10539818 42.01001045 43.10539818 40.82865906 43.11329651 C37.6169772 43.11363318 35.06979734 43.02326578 32 42 C30.39048457 38.78096915 30.75765252 35.25161168 30.68359375 31.7109375 C30.66281265 30.89251373 30.64203156 30.07408997 30.62062073 29.23086548 C30.55515188 26.61233034 30.49625274 23.99369361 30.4375 21.375 C30.39431224 19.60155193 30.35069786 17.82811419 30.30664062 16.0546875 C30.19866901 11.70322768 30.09957622 7.35169253 30 3 C15.15 2.505 15.15 2.505 0 2 C0 1.34 0 0.68 0 0 Z " fill="#0B0303" transform="translate(178,92)"/>
<path d="M0 0 C2.97 0 5.94 0 9 0 C9.02468447 4.80549747 9.04285255 9.61095818 9.05493164 14.41650391 C9.05996621 16.05192711 9.06679427 17.6873458 9.07543945 19.32275391 C9.08754335 21.67090975 9.093237 24.01900619 9.09765625 26.3671875 C9.10281754 27.10057343 9.10797882 27.83395935 9.11329651 28.58956909 C9.11387171 33.77225659 9.11387171 33.77225659 8 36 C5.36 36 2.72 36 0 36 C-0.16746774 31.19470128 -0.32804214 26.38924097 -0.48217773 21.58349609 C-0.53561099 19.94801607 -0.5909414 18.31259689 -0.64819336 16.67724609 C-0.73006761 14.32923506 -0.80515983 11.9810911 -0.87890625 9.6328125 C-0.90594131 8.89942657 -0.93297638 8.16604065 -0.96083069 7.41043091 C-1.11387171 2.22774341 -1.11387171 2.22774341 0 0 Z " fill="#F3F3F3" transform="translate(311,233)"/>
<path d="M0 0 C3.5 0.125 3.5 0.125 4.5 1.125 C4.60085654 3.54993373 4.63972332 5.94575661 4.6328125 8.37109375 C4.63376923 9.09740494 4.63472595 9.82371613 4.63571167 10.57203674 C4.63639344 12.1112578 4.63453937 13.65048171 4.63037109 15.18969727 C4.62503043 17.54905657 4.63031215 19.90822484 4.63671875 22.26757812 C4.63605782 23.76041709 4.63477634 25.25325593 4.6328125 26.74609375 C4.63483673 27.45446884 4.63686096 28.16284393 4.63894653 28.89268494 C4.61495714 33.89508571 4.61495714 33.89508571 3.5 36.125 C0.86 36.125 -1.78 36.125 -4.5 36.125 C-4.52465098 31.15877651 -4.54283649 26.19258834 -4.55493164 21.22631836 C-4.5599719 19.53555684 -4.56680405 17.84479971 -4.57543945 16.15405273 C-4.58751857 13.72899293 -4.59323123 11.30399056 -4.59765625 8.87890625 C-4.60281754 8.11848526 -4.60797882 7.35806427 -4.61329651 6.57460022 C-4.61349238 4.7576743 -4.56197277 2.94086873 -4.5 1.125 C-3.5 0.125 -3.5 0.125 0 0 Z " fill="#F4F4F4" transform="translate(46.5,232.875)"/>
<path d="M0 0 C0.66 0.33 1.32 0.66 2 1 C1.34 2.98 0.68 4.96 0 7 C0.84997559 7.26353271 1.69995117 7.52706543 2.57568359 7.79858398 C6.13362325 9.04688151 9.40634632 10.55859711 12.7890625 12.22265625 C13.41477142 12.52819931 14.04048035 12.83374237 14.68515015 13.14854431 C17.33874568 14.44444827 19.98803996 15.74904211 22.63769531 17.05297852 C24.58248138 18.00847485 26.52944617 18.95941991 28.4765625 19.91015625 C30.210271 20.76299194 30.210271 20.76299194 31.97900391 21.63305664 C35.78763423 23.35638953 38.91025748 24.12460705 43.07836914 24.12939453 C43.86921402 24.13254669 44.6600589 24.13569885 45.47486877 24.13894653 C46.31976364 24.1369223 47.16465851 24.13489807 48.03515625 24.1328125 C49.34775673 24.13424759 49.34775673 24.13424759 50.68687439 24.13571167 C52.53351921 24.13639115 54.38016643 24.13455302 56.22680664 24.13037109 C59.0555557 24.12501315 61.88414645 24.13032722 64.71289062 24.13671875 C66.50781285 24.13605805 68.30273498 24.13477707 70.09765625 24.1328125 C71.3680349 24.13584885 71.3680349 24.13584885 72.66407776 24.13894653 C76.0246065 24.12549849 78.78986751 24.07004416 82 23 C82 23.66 82 24.32 82 25 C75.41332472 28.83899256 69.11601839 28.48781623 61.73510742 28.44604492 C59.4676391 28.43761209 57.2027619 28.46619773 54.93554688 28.49804688 C39.98648725 28.57878282 28.07488978 23.93246255 14.82958984 17.39941406 C12.71627162 16.35838527 10.59516259 15.33464542 8.47265625 14.3125 C7.12191608 13.65462996 5.7716369 12.99581235 4.421875 12.3359375 C3.78973083 12.0307016 3.15758667 11.7254657 2.50628662 11.41098022 C-1.88438219 9.23123562 -1.88438219 9.23123562 -3 7 C-2.06421005 4.64018187 -1.06652192 2.30368736 0 0 Z " fill="#1D1B1B" transform="translate(174,148)"/>
<path d="M0 0 C35.09963677 -1.41292884 35.09963677 -1.41292884 48.19238281 6.00341797 C50.7386879 7.40725608 53.38003067 8.56098597 56.03442383 9.74365234 C62.19591042 12.50641059 68.17863544 15.57659591 74 19 C74 19.66 74 20.32 74 21 C69.88112301 20.37231638 66.61460592 19.00421349 62.88671875 17.1640625 C61.72076172 16.59429687 60.55480469 16.02453125 59.35351562 15.4375 C58.13127431 14.83381112 56.90927058 14.22964101 55.6875 13.625 C53.29774623 12.4459652 50.90538648 11.27267927 48.51171875 10.1015625 C47.45428467 9.57900879 46.39685059 9.05645508 45.30737305 8.51806641 C38.54761592 5.41537431 33.04210856 3.55426862 25.5625 3.48828125 C24.79695801 3.47033005 24.03141602 3.45237885 23.24267578 3.43388367 C20.82850444 3.38026045 18.41452515 3.34604177 16 3.3125 C14.35023395 3.27928432 12.7004931 3.24479081 11.05078125 3.20898438 C7.03399395 3.1245628 3.01725883 3.05752562 -1 3 C-0.67 2.01 -0.34 1.02 0 0 Z " fill="#0F0303" transform="translate(138,132)"/>
<path d="M0 0 C1.2065625 0.0309375 1.2065625 0.0309375 2.4375 0.0625 C3.0975 1.3825 3.7575 2.7025 4.4375 4.0625 C4.829375 3.4025 5.22125 2.7425 5.625 2.0625 C6.223125 1.4025 6.82125 0.7425 7.4375 0.0625 C10.05078125 -0.0625 10.05078125 -0.0625 12.4375 0.0625 C12.46443575 2.18743141 12.48386628 4.31245912 12.5 6.4375 C12.51160156 7.62085938 12.52320312 8.80421875 12.53515625 10.0234375 C12.4375 13.0625 12.4375 13.0625 11.4375 15.0625 C10.1175 15.0625 8.7975 15.0625 7.4375 15.0625 C7.1075 14.4025 6.7775 13.7425 6.4375 13.0625 C5.715625 13.206875 4.99375 13.35125 4.25 13.5 C1.64583333 14.02083333 -0.95833333 14.54166667 -3.5625 15.0625 C-3.58935412 12.75006208 -3.60882841 10.4375373 -3.625 8.125 C-3.63660156 6.83722656 -3.64820312 5.54945313 -3.66015625 4.22265625 C-3.53232863 0.08615436 -3.53232863 0.08615436 0 0 Z " fill="#C4C3C3" transform="translate(94.5625,288.9375)"/>
<path d="M0 0 C1.65 0 3.3 0 5 0 C5.66 0.99 6.32 1.98 7 3 C7.33 2.01 7.66 1.02 8 0 C9.65 0 11.3 0 13 0 C13 4.62 13 9.24 13 14 C11.35 14.33 9.7 14.66 8 15 C7.34 14.01 6.68 13.02 6 12 C5.01 13.485 5.01 13.485 4 15 C2.68 15 1.36 15 0 15 C0 10.05 0 5.1 0 0 Z " fill="#AFAEAE" transform="translate(237,289)"/>
<path d="M0 0 C0.33 0 0.66 0 1 0 C1.0093457 1.09465576 1.01869141 2.18931152 1.02832031 3.31713867 C1.06827937 7.38965111 1.13405402 11.4614128 1.20751953 15.53344727 C1.23569499 17.29376561 1.25692659 19.05420967 1.27099609 20.81469727 C1.29247373 23.34977411 1.33914592 25.8833451 1.390625 28.41796875 C1.39246796 29.59325386 1.39246796 29.59325386 1.39434814 30.7922821 C1.49181849 34.45207454 1.83910437 36.68639682 3.53515625 39.9921875 C6.90631959 42.73826984 9.87601665 42.72904991 14.046875 42.70703125 C14.81807678 42.72215256 15.58927856 42.73727386 16.3838501 42.75285339 C18.83953069 42.79573495 21.2939823 42.80456806 23.75 42.8125 C25.41800143 42.83564421 27.08597363 42.8610094 28.75390625 42.88867188 C32.83604614 42.95152782 36.9174189 42.98385956 41 43 C41 43.33 41 43.66 41 44 C40.04109863 44.02505615 39.08219727 44.0501123 38.09423828 44.07592773 C34.54201523 44.1699862 30.98998844 44.27021058 27.43798828 44.37231445 C25.89962347 44.41566926 24.36121037 44.45734395 22.82275391 44.49731445 C20.6134586 44.55500398 18.40440652 44.61870179 16.1953125 44.68359375 C15.50567413 44.70030624 14.81603577 44.71701874 14.10549927 44.73423767 C10.42885736 44.80806995 10.42885736 44.80806995 7 46 C3.3475015 44.67888352 1.42628365 43.67494391 -0.66870117 40.35791016 C-2.16856299 36.57483673 -2.41762289 33.33832283 -2.36328125 29.3359375 C-2.36377975 28.6214444 -2.36427826 27.90695129 -2.36479187 27.17080688 C-2.36246394 25.66983235 -2.35281149 24.16885297 -2.33618164 22.66796875 C-2.31249633 20.37464475 -2.31564151 18.08247859 -2.32226562 15.7890625 C-2.31669087 14.32551393 -2.30958226 12.86197023 -2.30078125 11.3984375 C-2.30169266 10.71607025 -2.30260406 10.033703 -2.30354309 9.33065796 C-2.24991581 5.72428721 -1.96004359 3.07149901 0 0 Z " fill="#2C0404" transform="translate(129,130)"/>
<path d="M0 0 C1.588125 -0.061875 3.17625 -0.12375 4.8125 -0.1875 C6.15248047 -0.23970703 6.15248047 -0.23970703 7.51953125 -0.29296875 C10 0 10 0 11.84765625 1.29296875 C13.74683481 4.10632818 12.57267811 6.79300256 12 10 C12.33 10.99 12.66 11.98 13 13 C12.67 13.66 12.34 14.32 12 15 C9.5625 14.625 9.5625 14.625 7 14 C6.67 13.34 6.34 12.68 6 12 C5.01 13.485 5.01 13.485 4 15 C2.68 15 1.36 15 0 15 C0 10.05 0 5.1 0 0 Z " fill="#D9D9D9" transform="translate(283,289)"/>
<path d="M0 0 C9.23186852 -0.60735977 9.23186852 -0.60735977 12.6875 2.125 C14.30812984 5.67495107 14.20155154 7.31524193 13 11 C11.41933106 12.99301736 10.26913298 13.86543351 8 15 C5.3276379 15.13415472 2.67749512 15.04318541 0 15 C0 10.05 0 5.1 0 0 Z M5 5 C5 6.65 5 8.3 5 10 C5.99 10 6.98 10 8 10 C8 8.35 8 6.7 8 5 C7.01 5 6.02 5 5 5 Z " fill="#E2E2E2" transform="translate(126,289)"/>
<path d="M0 0 C3.63 0 7.26 0 11 0 C11.09765625 6.15234375 11.09765625 6.15234375 11 8 C10.67 8.33 10.34 8.66 10 9 C10.66 9.33 11.32 9.66 12 10 C11.67 11.65 11.34 13.3 11 15 C7.37 15 3.74 15 0 15 C0 10.05 0 5.1 0 0 Z " fill="#8B8A8A" transform="translate(268,289)"/>
<path d="M0 0 C3.63 0 7.26 0 11 0 C10.70703125 2.31119792 10.4140625 4.62239583 10.12109375 6.93359375 C10.08113281 7.61550781 10.04117188 8.29742187 10 9 C10.33 9.33 10.66 9.66 11 10 C11 11.65 11 13.3 11 15 C7.37 15 3.74 15 0 15 C0 10.05 0 5.1 0 0 Z " fill="#3B3A3A" transform="translate(222,289)"/>
<path d="M0 0 C3.63 0 7.26 0 11 0 C11 10.375 11 10.375 10 15 C6.7 15 3.4 15 0 15 C0 10.05 0 5.1 0 0 Z " fill="#797878" transform="translate(111,289)"/>
<path d="M0 0 C0.99 0 1.98 0 3 0 C3 10.89 3 21.78 3 33 C6.031875 32.855625 9.06375 32.71125 12.1875 32.5625 C13.13391357 32.51939697 14.08032715 32.47629395 15.05541992 32.43188477 C19.12378036 32.22762466 23.02740865 31.97875439 27 31 C25 34 25 34 22 35 C20.38486949 35.09278335 18.76622945 35.13068503 17.1484375 35.1328125 C16.21515625 35.13410156 15.281875 35.13539063 14.3203125 35.13671875 C13.34835938 35.13285156 12.37640625 35.12898438 11.375 35.125 C10.3953125 35.12886719 9.415625 35.13273437 8.40625 35.13671875 C7.47554687 35.13542969 6.54484375 35.13414062 5.5859375 35.1328125 C4.30275635 35.13112061 4.30275635 35.13112061 2.99365234 35.12939453 C1 35 1 35 0 34 C-0.08847743 31.47905924 -0.11527301 28.98569107 -0.09765625 26.46484375 C-0.0962413 25.71159317 -0.09482635 24.95834259 -0.09336853 24.18226624 C-0.08775376 21.7673044 -0.07519883 19.35243399 -0.0625 16.9375 C-0.0574869 15.30403779 -0.05292366 13.67057414 -0.04882812 12.03710938 C-0.03777954 8.02470415 -0.02050506 4.01236759 0 0 Z " fill="#211A1A" transform="translate(125,234)"/>
<path d="M0 0 C1.2065625 0.0309375 1.2065625 0.0309375 2.4375 0.0625 C3.30093824 2.18374966 4.15300648 4.30963072 5 6.4375 C5.71349609 8.21253906 5.71349609 8.21253906 6.44140625 10.0234375 C7.4375 13.0625 7.4375 13.0625 6.4375 15.0625 C4.7875 14.7325 3.1375 14.4025 1.4375 14.0625 C1.4375 13.4025 1.4375 12.7425 1.4375 12.0625 C-0.53786745 12.41036708 -0.53786745 12.41036708 -2.5625 13.0625 C-2.8925 13.7225 -3.2225 14.3825 -3.5625 15.0625 C-5.2125 14.7325 -6.8625 14.4025 -8.5625 14.0625 C-7.75324658 11.91544019 -6.94000887 9.7698817 -6.125 7.625 C-5.67253906 6.43003906 -5.22007812 5.23507812 -4.75390625 4.00390625 C-3.16338982 0.07715585 -3.16338982 0.07715585 0 0 Z " fill="#D9D9D9" transform="translate(174.5625,288.9375)"/>
<path d="M0 0 C0.99 0 1.98 0 3 0 C3 10.89 3 21.78 3 33 C9.6 33 16.2 33 23 33 C23 33.66 23 34.32 23 35 C15.41 35 7.82 35 0 35 C0 23.45 0 11.9 0 0 Z " fill="#242121" transform="translate(62,234)"/>
<path d="M0 0 C0.99 0 1.98 0 3 0 C3 10.89 3 21.78 3 33 C9.6 33 16.2 33 23 33 C23 33.66 23 34.32 23 35 C19.35418313 35.02887512 15.70839537 35.04675585 12.0625 35.0625 C10.50112305 35.07506836 10.50112305 35.07506836 8.90820312 35.08789062 C7.91884766 35.09111328 6.92949219 35.09433594 5.91015625 35.09765625 C4.53549194 35.10551147 4.53549194 35.10551147 3.13305664 35.11352539 C1 35 1 35 0 34 C-0.08847743 31.47905924 -0.11527301 28.98569107 -0.09765625 26.46484375 C-0.0962413 25.71159317 -0.09482635 24.95834259 -0.09336853 24.18226624 C-0.08775376 21.7673044 -0.07519883 19.35243399 -0.0625 16.9375 C-0.0574869 15.30403779 -0.05292366 13.67057414 -0.04882812 12.03710938 C-0.03777954 8.02470415 -0.02050506 4.01236759 0 0 Z " fill="#221B1B" transform="translate(331,234)"/>
<path d="M0 0 C0.66 0.33 1.32 0.66 2 1 C1.67 2.65 1.34 4.3 1 6 C-1.31 5.67 -3.62 5.34 -6 5 C-5.34 6.32 -4.68 7.64 -4 9 C-2.02 9 -0.04 9 2 9 C1.67 10.65 1.34 12.3 1 14 C-5.19169329 15.45686901 -5.19169329 15.45686901 -8.875 13.375 C-11.24858646 10.72216807 -12.0868223 9.55971425 -12 6 C-8.4658415 0.63782848 -6.29657512 -0.2623573 0 0 Z " fill="#BCBCBC" transform="translate(216,289)"/>
<path d="M0 0 C3.07235411 0.53432245 4.03615216 1.04820288 5.875 3.5 C4.885 4.985 4.885 4.985 3.875 6.5 C0.75 6.6875 0.75 6.6875 -2.125 6.5 C-1.795 7.49 -1.465 8.48 -1.125 9.5 C0.855 9.5 2.835 9.5 4.875 9.5 C5.205 10.16 5.535 10.82 5.875 11.5 C4.3125 13.5625 4.3125 13.5625 1.875 15.5 C-1.6210972 15.43866496 -4.06014814 15.15265114 -7.0625 13.3125 C-8.71441578 10.49452602 -8.6379523 8.70595185 -8.125 5.5 C-5.60820873 2.09492945 -4.22095697 0.67535311 0 0 Z " fill="#E5E5E5" transform="translate(159.125,288.5)"/>
<path d="M0 0 C5.09031755 -0.04936158 10.18049643 -0.08570105 15.27099609 -0.10986328 C17.00344265 -0.11993376 18.73587216 -0.13359089 20.46826172 -0.15087891 C22.95544639 -0.17508162 25.44240675 -0.18647239 27.9296875 -0.1953125 C28.70682098 -0.20563507 29.48395447 -0.21595764 30.28463745 -0.22659302 C32.19125493 -0.22699271 34.09731036 -0.1223214 36 0 C38 2 38 2 38.22705078 5.07275391 C38.21657715 6.36101074 38.20610352 7.64926758 38.1953125 8.9765625 C38.1924826 9.66181 38.18965271 10.3470575 38.18673706 11.05307007 C38.17553281 13.24389027 38.15042859 15.43430316 38.125 17.625 C38.11497048 19.1093691 38.10584458 20.5937446 38.09765625 22.078125 C38.07559294 25.71888261 38.04106176 29.35940156 38 33 C37.01 33.33 36.02 33.66 35 34 C34.67 23.11 34.34 12.22 34 1 C22.78 1 11.56 1 0 1 C0 0.67 0 0.34 0 0 Z " fill="#2E2C2C" transform="translate(214,132)"/>
<path d="M0 0 C0 3 0 3 -1 5 C-1.52839495 11.21880209 -1.72493456 16.73371321 2 22 C7.22459598 26.7148793 10.29230417 27.21312629 17.15625 27.16796875 C20.7340328 26.95664367 23.63418877 26.19673288 27 25 C22.24803677 29.910362 22.24803677 29.910362 18.171875 30.203125 C6.48430493 30.3632287 6.48430493 30.3632287 2 27 C-2.4119694 22.48775857 -4.95661468 18.72571429 -5.03125 12.31640625 C-4.63331208 4.82522483 -4.63331208 4.82522483 -1.9375 1.3125 C-0.9784375 0.6628125 -0.9784375 0.6628125 0 0 Z " fill="#100D0D" transform="translate(167,239)"/>
<path d="M0 0 C3.96 0 7.92 0 12 0 C12 1.65 12 3.3 12 5 C11.01 5 10.02 5 9 5 C9.020625 6.27875 9.04125 7.5575 9.0625 8.875 C9.125 12.75 9.125 12.75 8 15 C6.35 14.67 4.7 14.34 3 14 C3 11.03 3 8.06 3 5 C2.01 5 1.02 5 0 5 C0 3.35 0 1.7 0 0 Z " fill="#AAA9A9" transform="translate(253,289)"/>
<path d="M0 0 C0.33 0 0.66 0 1 0 C1 11.22 1 22.44 1 34 C7.6 34 14.2 34 21 34 C21 34.66 21 35.32 21 36 C13.74 36 6.48 36 -1 36 C-1.02290956 31.03371566 -1.04283643 26.06761337 -1.05493164 21.10131836 C-1.0599719 19.41055684 -1.06680405 17.71979971 -1.07543945 16.02905273 C-1.08751857 13.60399293 -1.09323123 11.17899056 -1.09765625 8.75390625 C-1.10281754 7.99348526 -1.10797882 7.23306427 -1.11329651 6.44960022 C-1.11349238 4.6326743 -1.06197277 2.81586873 -1 1 C-0.67 0.67 -0.34 0.34 0 0 Z " fill="#090909" transform="translate(364,233)"/>
<path d="M0 0 C0.66 0 1.32 0 2 0 C2 10.89 2 21.78 2 33 C8.6 33 15.2 33 22 33 C22 33.66 22 34.32 22 35 C14.74 35 7.48 35 0 35 C0 23.45 0 11.9 0 0 Z " fill="#0D0C0C" transform="translate(94,234)"/>
<path d="M0 0 C5.94 0 11.88 0 18 0 C18 4.62 18 9.24 18 14 C19.65 14 21.3 14 23 14 C23 14.66 23 15.32 23 16 C20.36 16 17.72 16 15 16 C15 11.71 15 7.42 15 3 C11.844375 3.0309375 11.844375 3.0309375 8.625 3.0625 C2.25 3.125 2.25 3.125 0 2 C0 1.34 0 0.68 0 0 Z " fill="#292424" transform="translate(275,253)"/>
<path d="M0 0 C1.32 0 2.64 0 4 0 C4 3.3 4 6.6 4 10 C5.65 10 7.3 10 9 10 C9 11.65 9 13.3 9 15 C7.52093108 15.02689216 6.04172517 15.04634621 4.5625 15.0625 C3.32693359 15.07990234 3.32693359 15.07990234 2.06640625 15.09765625 C0 15 0 15 -1 14 C-1.0989294 11.83519203 -1.129711 9.66706215 -1.125 7.5 C-1.12757813 6.3140625 -1.13015625 5.128125 -1.1328125 3.90625 C-1 1 -1 1 0 0 Z " fill="#D3D3D3" transform="translate(185,289)"/>
<path d="M0 0 C10.89 0 21.78 0 33 0 C32.34 0.99 31.68 1.98 31 3 C28.51659097 3.26727014 26.28527932 3.34866334 23.8046875 3.29296875 C23.09724396 3.28872391 22.38980042 3.28447906 21.66091919 3.28010559 C19.39856095 3.26329547 17.13708952 3.22564128 14.875 3.1875 C13.34246077 3.17245607 11.8099076 3.15876716 10.27734375 3.14648438 C6.51788682 3.11338462 2.75909382 3.06158825 -1 3 C-0.67 2.01 -0.34 1.02 0 0 Z " fill="#250303" transform="translate(138,132)"/>
<path d="M0 0 C0 0.66 0 1.32 0 2 C-0.99 2.33 -1.98 2.66 -3 3 C-4.07955212 6.23865635 -4.20441741 8.79155838 -4.31640625 12.19921875 C-4.35830078 13.40771484 -4.40019531 14.61621094 -4.44335938 15.86132812 C-4.50233398 17.7552832 -4.50233398 17.7552832 -4.5625 19.6875 C-4.60568359 20.96173828 -4.64886719 22.23597656 -4.69335938 23.54882812 C-4.7995486 26.69910852 -4.90159533 29.84946839 -5 33 C-3.02 33 -1.04 33 1 33 C1.33 33.66 1.66 34.32 2 35 C-4.75 36.125 -4.75 36.125 -7 35 C-7.28482505 30.459817 -7.5217135 25.91834903 -7.75 21.375 C-7.83121094 20.08980469 -7.91242188 18.80460937 -7.99609375 17.48046875 C-8.49342459 6.81548524 -8.49342459 6.81548524 -6.140625 3.1640625 C-3.01083032 0 -3.01083032 0 0 0 Z " fill="#010101" transform="translate(175,86)"/>
<path d="M0 0 C0.66 0 1.32 0 2 0 C2 10.89 2 21.78 2 33 C3.98 33 5.96 33 8 33 C8 33.66 8 34.32 8 35 C5.36 35 2.72 35 0 35 C-0.167247 30.176384 -0.32784308 25.35261089 -0.48217773 20.52856445 C-0.53566959 18.88625066 -0.59100431 17.24399584 -0.64819336 15.60180664 C-0.72990479 13.24638594 -0.80506639 10.89083518 -0.87890625 8.53515625 C-0.90594131 7.79660904 -0.93297638 7.05806183 -0.96083069 6.2971344 C-1.0129438 4.53214384 -1.0118612 2.7657199 -1 1 C-0.67 0.67 -0.34 0.34 0 0 Z " fill="#141414" transform="translate(311,234)"/>
<path d="M0 0 C0.33 0 0.66 0 1 0 C1 11.22 1 22.44 1 34 C2.98 34 4.96 34 7 34 C7 34.66 7 35.32 7 36 C4.36 36 1.72 36 -1 36 C-1.02465098 31.03377651 -1.04283649 26.06758834 -1.05493164 21.10131836 C-1.0599719 19.41055684 -1.06680405 17.71979971 -1.07543945 16.02905273 C-1.08751857 13.60399293 -1.09323123 11.17899056 -1.09765625 8.75390625 C-1.10281754 7.99348526 -1.10797882 7.23306427 -1.11329651 6.44960022 C-1.11349238 4.6326743 -1.06197277 2.81586873 -1 1 C-0.67 0.67 -0.34 0.34 0 0 Z " fill="#040303" transform="translate(268,233)"/>
<path d="M0 0 C0.66 0 1.32 0 2 0 C2 10.89 2 21.78 2 33 C3.98 33 5.96 33 8 33 C8 33.66 8 34.32 8 35 C5.36 35 2.72 35 0 35 C0 23.45 0 11.9 0 0 Z " fill="#161616" transform="translate(42,234)"/>
<path d="M0 0 C0.66 0 1.32 0 2 0 C2 10.89 2 21.78 2 33 C3.98 33 5.96 33 8 33 C8 33.66 8 34.32 8 35 C5.36 35 2.72 35 0 35 C0 23.45 0 11.9 0 0 Z " fill="#1F1F1F" transform="translate(4,234)"/>
<path d="M0 0 C0.66 0.33 1.32 0.66 2 1 C1.34 2.98 0.68 4.96 0 7 C0.83917969 7.25910156 1.67835938 7.51820313 2.54296875 7.78515625 C6.26825633 9.09426861 9.78043521 10.68818085 13.3125 12.4375 C14.26092773 12.88706055 14.26092773 12.88706055 15.22851562 13.34570312 C16.86022308 14.151938 18.43569868 15.06970689 20 16 C20.33 16.99 20.66 17.98 21 19 C12.33263693 16.56705598 4.82828494 12.34217123 -3 8 C-1.125 2.25 -1.125 2.25 0 0 Z " fill="#0C0808" transform="translate(174,148)"/>
<path d="M0 0 C3.75212276 2.01502889 5.63644095 3.45466142 8 7 C8.46531409 12.02539212 7.97760844 14.90578839 5 19 C4 17 4 17 4.625 14.25 C5.09645597 10.16404824 4.24141677 8.40077027 2 5 C-1.14571053 2.61359891 -4.14086842 2.59800713 -8 3 C-10.34261608 4.37926773 -10.34261608 4.37926773 -12 6 C-12 3 -12 3 -10.5 1.3125 C-7.00272924 -0.52356715 -3.82071211 -0.67597214 0 0 Z " fill="#191616" transform="translate(186,239)"/>
<path d="M0 0 C1.65 0 3.3 0 5 0 C5.02693575 2.12493141 5.04636628 4.24995912 5.0625 6.375 C5.07410156 7.55835938 5.08570313 8.74171875 5.09765625 9.9609375 C5 13 5 13 4 15 C2.68 15 1.36 15 0 15 C-0.19448477 12.87562788 -0.38038289 10.75046809 -0.5625 8.625 C-0.66691406 7.44164062 -0.77132812 6.25828125 -0.87890625 5.0390625 C-1 2 -1 2 0 0 Z " fill="#EFEFEF" transform="translate(143,289)"/>
<path d="M0 0 C3.34292611 3.1019945 5.76244801 6.43575362 8.25 10.25 C8.95640625 11.32765625 9.6628125 12.4053125 10.390625 13.515625 C10.92171875 14.33546875 11.4528125 15.1553125 12 16 C10.44805246 19.32759923 8.69378051 21.48580485 6 24 C6.350625 23.2575 6.70125 22.515 7.0625 21.75 C8.12033796 18.64700865 8.10829961 17.99612097 7 15 C4.96476136 11.85424733 2.79511266 8.82568537 0.6171875 5.77734375 C0.08351562 4.86082031 -0.45015625 3.94429687 -1 3 C-0.67 2.01 -0.34 1.02 0 0 Z " fill="#110E0E" transform="translate(208,233)"/>
<path d="M0 0 C10.56 0 21.12 0 32 0 C31.67 1.32 31.34 2.64 31 4 C30.67 3.67 30.34 3.34 30 3 C27.78312006 2.84126045 25.56144702 2.74866163 23.33984375 2.68359375 C22.34314415 2.6524221 22.34314415 2.6524221 21.3263092 2.62062073 C19.19681457 2.55506342 17.06719332 2.49621215 14.9375 2.4375 C13.49673153 2.39432061 12.05597601 2.35070651 10.61523438 2.30664062 C7.0769596 2.19937607 3.53854131 2.09812629 0 2 C0 1.34 0 0.68 0 0 Z " fill="#0D0D0D" transform="translate(178,92)"/>
<path d="M0 0 C3.3 0 6.6 0 10 0 C10 2.31 10 4.62 10 7 C6.93109813 8.53445094 4.29905734 7.54984289 1 7 C0.67 4.69 0.34 2.38 0 0 Z " fill="#ABABAB" transform="translate(112,289)"/>
<path d="M0 0 C3.3 0 6.6 0 10 0 C9.67 2.64 9.34 5.28 9 8 C6.36 7.67 3.72 7.34 1 7 C0.67 4.69 0.34 2.38 0 0 Z " fill="#C0BFBF" transform="translate(223,289)"/>
<path d="M0 0 C3.25516428 3.16474305 6.32008793 6.32752791 9 10 C9 10.66 9 11.32 9 12 C11.31 12 13.62 12 16 12 C16 12.66 16 13.32 16 14 C12.7737883 14.73934018 10.20443941 14.90710285 7 14 C3.65155244 10.74908004 1.07072763 7.18383858 -1 3 C-0.67 2.01 -0.34 1.02 0 0 Z " fill="#1A1919" transform="translate(223,255)"/>
<path d="M0 0 C0.99 0.495 0.99 0.495 2 1 C2 4.63 2 8.26 2 12 C5.3 11.67 8.6 11.34 12 11 C12 11.66 12 12.32 12 13 C8.09971775 15.60018816 4.52565431 15.15085514 0 15 C0 10.05 0 5.1 0 0 Z " fill="#1F1D1D" transform="translate(126,289)"/>
<path d="M0 0 C0 1.85463477 -0.03463746 3.71006788 -0.125 5.5625 C-0.26349674 8.18314627 -0.26349674 8.18314627 2 10 C4.65537372 10.56520003 7.29144713 10.73788198 10 11 C8.9375 12.5625 8.9375 12.5625 7 14 C3.56890417 13.87746086 1.01779446 13.62380951 -1.9375 11.8125 C-3.54073557 9.07756873 -3.38077478 7.1096607 -3 4 C-1.5 1.625 -1.5 1.625 0 0 Z " fill="#1A1717" transform="translate(154,290)"/>
<path d="M0 0 C1.7492214 -0.08142927 3.49954542 -0.13938541 5.25 -0.1875 C6.22453125 -0.22230469 7.1990625 -0.25710937 8.203125 -0.29296875 C11.37468742 0.03924798 12.67040307 0.88672279 15 3 C14.74438677 5.3431213 14.40729228 7.67843403 14 10 C13.01 10.495 13.01 10.495 12 11 C11.814375 9.2984375 11.814375 9.2984375 11.625 7.5625 C11.41875 6.386875 11.2125 5.21125 11 4 C8.70370006 2.85185003 6.92301914 2.69230191 4.375 2.4375 C3.55773437 2.35371094 2.74046875 2.26992187 1.8984375 2.18359375 C1.27195312 2.12300781 0.64546875 2.06242188 0 2 C0 1.34 0 0.68 0 0 Z " fill="#1C1A1A" transform="translate(12,239)"/>
<path d="M0 0 C0.66 0 1.32 0 2 0 C2 4.29 2 8.58 2 13 C4.97 13 7.94 13 11 13 C11 13.66 11 14.32 11 15 C7.37 15 3.74 15 0 15 C0 10.05 0 5.1 0 0 Z " fill="#060404" transform="translate(268,289)"/>
<path d="M0 0 C0 3 0 3 -0.1875 5.5 C-0.18511973 7.98871344 -0.18511973 7.98871344 1.0625 9.8125 C3.99268751 11.60842137 6.6472953 11.18977574 10 11 C8.9375 12.5625 8.9375 12.5625 7 14 C3.56311521 13.87725411 1.02318837 13.68212558 -1.875 11.75 C-3.40474006 9.37040435 -3.93218511 7.84822535 -4 5 C-2.0625 2.1875 -2.0625 2.1875 0 0 Z " fill="#130F0F" transform="translate(208,290)"/>
<path d="M0 0 C0.99 0.495 0.99 0.495 2 1 C2 4.96 2 8.92 2 13 C4.97 13 7.94 13 11 13 C10.67 13.66 10.34 14.32 10 15 C6.7 15 3.4 15 0 15 C0 10.05 0 5.1 0 0 Z " fill="#110F0F" transform="translate(111,289)"/>
<path d="M0 0 C0 0.66 0 1.32 0 2 C-0.99 2.33 -1.98 2.66 -3 3 C-4.07955212 6.23865635 -4.20441741 8.79155838 -4.31640625 12.19921875 C-4.35830078 13.40771484 -4.40019531 14.61621094 -4.44335938 15.86132812 C-4.50233398 17.7552832 -4.50233398 17.7552832 -4.5625 19.6875 C-4.60568359 20.96173828 -4.64886719 22.23597656 -4.69335938 23.54882812 C-4.7995486 26.69910852 -4.90159533 29.84946839 -5 33 C-5.33 33 -5.66 33 -6 33 C-6 24.75 -6 16.5 -6 8 C-6.66 7.67 -7.32 7.34 -8 7 C-3.53191489 0 -3.53191489 0 0 0 Z " fill="#383737" transform="translate(175,86)"/>
<path d="M0 0 C0.33 0 0.66 0 1 0 C1 4.29 1 8.58 1 13 C3.64 13 6.28 13 9 13 C9 13.66 9 14.32 9 15 C7.52093108 15.02689216 6.04172517 15.04634621 4.5625 15.0625 C3.32693359 15.07990234 3.32693359 15.07990234 2.06640625 15.09765625 C0 15 0 15 -1 14 C-1.0989294 11.83519203 -1.129711 9.66706215 -1.125 7.5 C-1.12757813 6.3140625 -1.13015625 5.128125 -1.1328125 3.90625 C-1 1 -1 1 0 0 Z " fill="#020101" transform="translate(185,289)"/>
<path d="M0 0 C1.32 0 2.64 0 4 0 C4 4.29 4 8.58 4 13 C3.01 13 2.02 13 1 13 C0.67 8.71 0.34 4.42 0 0 Z " fill="#EDEDED" transform="translate(103,289)"/>
<path d="M0 0 C0.99 0.495 0.99 0.495 2 1 C2 1.66 2 2.32 2 3 C2.99 3 3.98 3 5 3 C5 6.3 5 9.6 5 13 C5.99 13 6.98 13 8 13 C8 13.66 8 14.32 8 15 C6.35 14.67 4.7 14.34 3 14 C3 11.03 3 8.06 3 5 C2.01 5 1.02 5 0 5 C0 3.35 0 1.7 0 0 Z " fill="#0A0505" transform="translate(253,289)"/>
<path d="M0 0 C1.32 0 2.64 0 4 0 C5.65 4.29 7.3 8.58 9 13 C7.68 12.67 6.36 12.34 5 12 C3.21715186 8.70173093 3 6.8225249 3 3 C2.34 3 1.68 3 1 3 C0.67 2.01 0.34 1.02 0 0 Z " fill="#EFEFEF" transform="translate(173,289)"/>
<path d="M0 0 C1.95803507 -0.05389087 3.91648909 -0.09274217 5.875 -0.125 C7.51082031 -0.15980469 7.51082031 -0.15980469 9.1796875 -0.1953125 C12 0 12 0 14 2 C14.125 4.625 14.125 4.625 14 7 C13.01 7 12.02 7 11 7 C11 5.68 11 4.36 11 3 C7.37 2.67 3.74 2.34 0 2 C0 1.34 0 0.68 0 0 Z " fill="#0B0A0A" transform="translate(134,253)"/>
<path d="M0 0 C0 3 0 3 -1 5 C-1.2275015 6.87056791 -1.40962811 8.74685958 -1.5625 10.625 C-1.64628906 11.62789062 -1.73007813 12.63078125 -1.81640625 13.6640625 C-1.87699219 14.43492187 -1.93757812 15.20578125 -2 16 C-2.99 15.67 -3.98 15.34 -5 15 C-4.64989059 4.84682713 -4.64989059 4.84682713 -1.9375 1.3125 C-0.9784375 0.6628125 -0.9784375 0.6628125 0 0 Z " fill="#262323" transform="translate(167,239)"/>
<path d="M0 0 C0.66 0 1.32 0 2 0 C2 4.29 2 8.58 2 13 C2.99 13.33 3.98 13.66 5 14 C3.35 14.33 1.7 14.66 0 15 C0 10.05 0 5.1 0 0 Z " fill="#060202" transform="translate(283,289)"/>
<path d="M0 0 C0.33 0 0.66 0 1 0 C1 4.29 1 8.58 1 13 C1.99 13.33 2.98 13.66 4 14 C2.35 14.33 0.7 14.66 -1 15 C-1.02685412 12.68756208 -1.04632841 10.3750373 -1.0625 8.0625 C-1.07410156 6.77472656 -1.08570312 5.48695313 -1.09765625 4.16015625 C-1 1 -1 1 0 0 Z " fill="#060303" transform="translate(92,289)"/>
<path d="M0 0 C0.66 0.33 1.32 0.66 2 1 C2 4.96 2 8.92 2 13 C2.66 13 3.32 13 4 13 C4 13.66 4 14.32 4 15 C2.68 15 1.36 15 0 15 C-0.19448477 12.87562788 -0.38038289 10.75046809 -0.5625 8.625 C-0.66691406 7.44164062 -0.77132812 6.25828125 -0.87890625 5.0390625 C-1 2 -1 2 0 0 Z " fill="#100C0C" transform="translate(143,289)"/>
<path d="M0 0 C0.99 0 1.98 0 3 0 C3 4.29 3 8.58 3 13 C2.01 13 1.02 13 0 13 C-0.33 11.68 -0.66 10.36 -1 9 C-0.34 9 0.32 9 1 9 C0.67 6.03 0.34 3.06 0 0 Z " fill="#F7F7F7" transform="translate(247,289)"/>
<path d="M0 0 C1.79133978 -0.05391993 3.58313899 -0.09275571 5.375 -0.125 C6.37273437 -0.14820313 7.37046875 -0.17140625 8.3984375 -0.1953125 C11 0 11 0 13 2 C12.625 4.625 12.625 4.625 12 7 C11.67 5.68 11.34 4.36 11 3 C7.37 2.67 3.74 2.34 0 2 C0 1.34 0 0.68 0 0 Z " fill="#0D0C0C" transform="translate(134,239)"/>
<path d="M0 0 C0.99 0.495 0.99 0.495 2 1 C2 4.96 2 8.92 2 13 C2.66 13 3.32 13 4 13 C4 13.66 4 14.32 4 15 C2.68 15 1.36 15 0 15 C0 10.05 0 5.1 0 0 Z " fill="#151212" transform="translate(237,289)"/>
<path d="M0 0 C0.66 0.33 1.32 0.66 2 1 C1.34 2.98 0.68 4.96 0 7 C1.98 7.66 3.96 8.32 6 9 C4.3125 10.1875 4.3125 10.1875 2 11 C-0.75 9.625 -0.75 9.625 -3 8 C-1.125 2.25 -1.125 2.25 0 0 Z " fill="#1A1616" transform="translate(174,148)"/>
<path d="M0 0 C4.875 4.625 4.875 4.625 6 8 C6.99 8.33 7.98 8.66 9 9 C7.35 9.33 5.7 9.66 4 10 C0 4.5 0 4.5 0 0 Z " fill="#211E1E" transform="translate(241,294)"/>
<path d="M0 0 C1 2 1 2 0.22265625 4.6015625 C-0.16019531 5.59929687 -0.54304687 6.59703125 -0.9375 7.625 C-1.31777344 8.62789063 -1.69804687 9.63078125 -2.08984375 10.6640625 C-2.39019531 11.43492187 -2.69054687 12.20578125 -3 13 C-2.34 13 -1.68 13 -1 13 C-1 13.66 -1 14.32 -1 15 C-2.65 14.67 -4.3 14.34 -6 14 C-5.19074658 11.85294019 -4.37750887 9.7073817 -3.5625 7.5625 C-3.11003906 6.36753906 -2.65757812 5.17257812 -2.19140625 3.94140625 C-1 1 -1 1 0 0 Z " fill="#110C0C" transform="translate(172,289)"/>
<path d="M0 0 C7.50769231 -0.36923077 7.50769231 -0.36923077 10 1.5 C10.495 2.2425 10.495 2.2425 11 3 C10.67 3.99 10.34 4.98 10 6 C9.34 6 8.68 6 8 6 C7.67 5.01 7.34 4.02 7 3 C5.35 2.67 3.7 2.34 2 2 C1.67 2.66 1.34 3.32 1 4 C0.67 2.68 0.34 1.36 0 0 Z " fill="#F9F9F9" transform="translate(285,289)"/>
<path d="M0 0 C1.32 1.65 2.64 3.3 4 5 C2.55746343 8.36591866 0.66735273 10.51047079 -2 13 C-1.649375 12.29875 -1.29875 11.5975 -0.9375 10.875 C0.16783441 7.4853078 -0.31031911 5.44840444 -1 2 C-0.67 1.34 -0.34 0.68 0 0 Z " fill="#1F1B1B" transform="translate(216,244)"/>
<path d="M0 0 C4.0042343 3.49087093 5.62671065 5.64951939 6 11 C3.05278838 8.25604436 0.80831392 5.61662784 -1 2 C-0.67 1.34 -0.34 0.68 0 0 Z " fill="#131010" transform="translate(223,255)"/>
<path d="M0 0 C0.99 0 1.98 0 3 0 C3.2954439 5.02254631 2.98514628 7.89542386 0 12 C-1.31157516 9.37684968 -0.89649988 7.76966564 -0.5625 4.875 C-0.46066406 3.96492187 -0.35882813 3.05484375 -0.25390625 2.1171875 C-0.17011719 1.41851562 -0.08632812 0.71984375 0 0 Z " fill="#211F1F" transform="translate(191,246)"/>
<path d="M0 0 C1.485 0.99 1.485 0.99 3 2 C3.40843923 4.71203652 3.13336867 7.2437142 3 10 C2.01 9.67 1.02 9.34 0 9 C0 6.03 0 3.06 0 0 Z " fill="#F9F9F9" transform="translate(259,292)"/>
<path d="M0 0 C0.33 0.66 0.66 1.32 1 2 C1.66 2.33 2.32 2.66 3 3 C3 5.64 3 8.28 3 11 C2.01 11 1.02 11 0 11 C0 7.37 0 3.74 0 0 Z " fill="#E8E8E8" transform="translate(239,291)"/>
<path d="M0 0 C0.33 0.99 0.66 1.98 1 3 C3.31 3 5.62 3 8 3 C7.67 3.66 7.34 4.32 7 5 C4.03 5 1.06 5 -2 5 C-1 1 -1 1 0 0 Z " fill="#131010" transform="translate(208,264)"/>
<path d="M0 0 C5.5 -0.36666667 5.5 -0.36666667 7.875 1.375 C9 3 9 3 9 5 C7.35 4.67 5.7 4.34 4 4 C4 3.34 4 2.68 4 2 C2.68 2 1.36 2 0 2 C0 1.34 0 0.68 0 0 Z " fill="#0D0A0A" transform="translate(172,299)"/>
<path d="M0 0 C0.66 0.66 1.32 1.32 2 2 C4.32275177 2.40047444 6.65739357 2.7397104 9 3 C9 3.99 9 4.98 9 6 C6.03 5.67 3.06 5.34 0 5 C0 3.35 0 1.7 0 0 Z " fill="#FAFAFA" transform="translate(271,296)"/>
<path d="M0 0 C0.66 0 1.32 0 2 0 C2 1.98 2 3.96 2 6 C3.32 6 4.64 6 6 6 C6 6.66 6 7.32 6 8 C4.02 8 2.04 8 0 8 C0 5.36 0 2.72 0 0 Z " fill="#F9F9F9" transform="translate(129,293)"/>
<path d="M0 0 C0.66 0.33 1.32 0.66 2 1 C-2.69978858 4.97674419 -2.69978858 4.97674419 -6.40234375 5.04296875 C-8.62710829 4.77937106 -10.80547311 4.44865883 -13 4 C-13 3.67 -13 3.34 -13 3 C-12.22914063 2.86722656 -11.45828125 2.73445313 -10.6640625 2.59765625 C-9.66117188 2.42105469 -8.65828125 2.24445313 -7.625 2.0625 C-6.62726563 1.88847656 -5.62953125 1.71445312 -4.6015625 1.53515625 C-2.03090344 1.12287938 -2.03090344 1.12287938 0 0 Z " fill="#252323" transform="translate(192,264)"/>
<path d="M0 0 C0.33 0 0.66 0 1 0 C1 2.64 1 5.28 1 8 C1.66 8 2.32 8 3 8 C3 8.66 3 9.32 3 10 C1.68 10 0.36 10 -1 10 C-2.15837626 5.94568308 -1.83691257 3.78187881 0 0 Z " fill="#1F1C1C" transform="translate(103,294)"/>
<path d="M0 0 C3.24271506 0.5590888 4.93057424 1.4132178 7 4 C7 4.66 7 5.32 7 6 C4.625 5.8125 4.625 5.8125 2 5 C0.6875 2.4375 0.6875 2.4375 0 0 Z " fill="#131111" transform="translate(288,298)"/>
<path d="M0 0 C2.375 -0.125 2.375 -0.125 5 0 C5.66 0.66 6.32 1.32 7 2 C6.75 4.0625 6.75 4.0625 6 6 C5.01 6.495 5.01 6.495 4 7 C4 5.35 4 3.7 4 2 C2.68 1.67 1.36 1.34 0 1 C0 0.67 0 0.34 0 0 Z " fill="#161313" transform="translate(130,292)"/>
<path d="M0 0 C2.375 -0.125 2.375 -0.125 5 0 C5.66 0.66 6.32 1.32 7 2 C6.625 4.625 6.625 4.625 6 7 C5.67 6.01 5.34 5.02 5 4 C4.34 4 3.68 4 3 4 C3 3.34 3 2.68 3 2 C2.01 2 1.02 2 0 2 C0 1.34 0 0.68 0 0 Z " fill="#656363" transform="translate(288,292)"/>
<path d="M0 0 C2.97 0 5.94 0 9 0 C9 0.99 9 1.98 9 3 C6.69 2.67 4.38 2.34 2 2 C1.67 2.99 1.34 3.98 1 5 C0.67 3.35 0.34 1.7 0 0 Z " fill="#F9F9F9" transform="translate(270,289)"/>
<path d="M0 0 C2.2477975 2.05233685 3.0022242 3.00667261 4 6 C4.66 6.66 5.32 7.32 6 8 C4.68 8 3.36 8 2 8 C0.23537317 4.91190305 0 3.76687864 0 0 Z " fill="#2C2828" transform="translate(95,294)"/>
<path d="M0 0 C0.33 0.66 0.66 1.32 1 2 C1.66 2 2.32 2 3 2 C3.33 3.65 3.66 5.3 4 7 C2.68 6.67 1.36 6.34 0 6 C-0.38218767 4.34385343 -0.71395102 2.67542976 -1 1 C-0.67 0.67 -0.34 0.34 0 0 Z " fill="#8F8F8F" transform="translate(173,290)"/>
<path d="M0 0 C0.598125 0.763125 1.19625 1.52625 1.8125 2.3125 C3.46959332 4.3483575 5.10297674 6.1978279 7 8 C6.34 8.66 5.68 9.32 5 10 C2.9754262 8.06745228 1.57894208 6.36841312 0 4 C0 2.68 0 1.36 0 0 Z " fill="#230505" transform="translate(170,206)"/>
<path d="M0 0 C2.64 0.33 5.28 0.66 8 1 C7.67 1.99 7.34 2.98 7 4 C4.69 3.67 2.38 3.34 0 3 C0 2.01 0 1.02 0 0 Z " fill="#F9F9F9" transform="translate(225,298)"/>
<path d="M0 0 C2.64 0.33 5.28 0.66 8 1 C7.67 1.99 7.34 2.98 7 4 C4.69 3.67 2.38 3.34 0 3 C0 2.01 0 1.02 0 0 Z " fill="#F9F9F9" transform="translate(114,298)"/>
<path d="M0 0 C1.32 0 2.64 0 4 0 C4.66 1.98 5.32 3.96 6 6 C5.01 6.33 4.02 6.66 3 7 C3 5.68 3 4.36 3 3 C2.34 3 1.68 3 1 3 C0.67 2.01 0.34 1.02 0 0 Z " fill="#F6F6F6" transform="translate(173,289)"/>
<path d="M0 0 C1.32 0.33 2.64 0.66 4 1 C4.33 2.65 4.66 4.3 5 6 C3.0625 5.25 3.0625 5.25 1 4 C0.25 1.875 0.25 1.875 0 0 Z " fill="#171515" transform="translate(211,240)"/>
<path d="M0 0 C1.98 0 3.96 0 6 0 C6.33 0.66 6.66 1.32 7 2 C4.69 2.33 2.38 2.66 0 3 C0 2.01 0 1.02 0 0 Z " fill="#1F1717" transform="translate(170,119)"/>
<path d="M0 0 C2.31 0.33 4.62 0.66 7 1 C7 1.99 7 2.98 7 4 C4.69 3.67 2.38 3.34 0 3 C0 2.01 0 1.02 0 0 Z " fill="#FAFAFA" transform="translate(114,293)"/>
<path d="M0 0 C2.31 0.33 4.62 0.66 7 1 C6.67 1.66 6.34 2.32 6 3 C3.69 3 1.38 3 -1 3 C-0.67 2.01 -0.34 1.02 0 0 Z " fill="#131212" transform="translate(157,292)"/>
<path d="M0 0 C2.97 0.495 2.97 0.495 6 1 C6 1.99 6 2.98 6 4 C3.69 3.34 1.38 2.68 -1 2 C-0.67 1.34 -0.34 0.68 0 0 Z " fill="#F3F3F3" transform="translate(158,289)"/>
</svg>
